<svg width="23" height="32" viewBox="0 0 23 32" fill="none" xmlns="http://www.w3.org/2000/svg">
<path fill-rule="evenodd" clip-rule="evenodd" d="M7.49135 12.9796C5.82265 12.9796 4.4699 14.3319 4.4699 16C4.4699 17.6681 5.82265 19.0204 7.49135 19.0204H10.5945V16V12.9796H7.49135ZM15.0858 11.5102L15.1675 11.5102C16.8362 11.5102 18.1889 10.1579 18.1889 8.4898C18.1889 6.82167 16.8362 5.46939 15.1675 5.46939H12.0644V11.5102L15.0858 11.5102ZM17.6304 12.2449C18.8522 11.4425 19.6588 10.0603 19.6588 8.4898C19.6588 6.01015 17.648 4 15.1675 4H12.0644H11.3294H10.5945H7.49135C5.01085 4 3 6.01015 3 8.4898C3 10.0603 3.80665 11.4425 5.02838 12.2449C3.80665 13.0473 3 14.4295 3 16C3 17.5705 3.80665 18.9527 5.02838 19.7551C3.80665 20.5575 3 21.9397 3 23.5102C3 25.995 5.03632 28 7.51165 28C10.0095 28 12.0644 25.9767 12.0644 23.4694V20.4898V19.7551V19.322C12.8621 20.0475 13.9223 20.4898 15.0858 20.4898H15.1675C17.648 20.4898 19.6588 18.4796 19.6588 16C19.6588 14.4295 18.8522 13.0473 17.6304 12.2449ZM15.1675 12.9796L15.0858 12.9796C13.4171 12.9796 12.0644 14.3319 12.0644 16C12.0644 17.6681 13.4171 19.0204 15.0858 19.0204H15.1675C16.8362 19.0204 18.1889 17.6681 18.1889 16C18.1889 14.3319 16.8362 12.9796 15.1675 12.9796ZM4.4699 23.5102C4.4699 21.8421 5.82265 20.4898 7.49135 20.4898H10.5945V23.4694C10.5945 25.1549 9.20807 26.5306 7.51165 26.5306C5.83779 26.5306 4.4699 25.1732 4.4699 23.5102ZM10.5945 11.5102H7.49135C5.82265 11.5102 4.4699 10.1579 4.4699 8.4898C4.4699 6.82167 5.82265 5.46939 7.49135 5.46939H10.5945V11.5102Z" fill="white"/>
</svg>
