<svg width="32" height="32" viewBox="0 0 32 32" fill="none" xmlns="http://www.w3.org/2000/svg">
<mask id="mask0_27_4627" style="mask-type:luminance" maskUnits="userSpaceOnUse" x="3" y="3" width="26" height="26">
<path d="M29 3H3V29H29V3Z" fill="white"/>
</mask>
<g mask="url(#mask0_27_4627)">
<path d="M25.1 3H6.9C4.74609 3 3 4.74609 3 6.9V25.1C3 27.2539 4.74609 29 6.9 29H25.1C27.2539 29 29 27.2539 29 25.1V6.9C29 4.74609 27.2539 3 25.1 3Z" fill="#FFDD22"/>
<path d="M24.2269 18.539L23.9222 17.6757C23.9222 17.6757 25.1918 15.7461 22.0433 15.0859C22.0433 15.0859 22.2465 12.6992 21.1293 11.582C23.5668 9.19526 23.0082 5.58979 17.473 7.92572C14.6293 2.49213 3.66048 15.2382 8.2308 17.2695C7.77377 17.8789 7.77377 20.9258 10.9222 21.2304C13.055 25.8008 18.2347 26.1054 21.2308 24.7343C24.2269 23.3633 25.9535 18.9961 24.2269 18.539ZM10.8714 20.5703C8.28158 20.3164 8.02767 16.7617 10.262 16.4062C12.4965 16.0507 13.055 20.7734 10.8714 20.5703ZM10.1097 15.7461C9.39877 15.7461 8.53548 16.7109 8.53548 16.7109C5.08236 15.0351 14.7816 3.91401 16.8636 8.23041C16.8636 8.23041 11.7855 10.6679 10.1097 15.7461ZM20.266 20.0625C20.266 19.8593 19.1996 20.3672 17.2699 19.707C17.4222 18.6406 19.7074 20.6211 23.516 18.0312L23.8207 19.0976C25.2425 18.8437 23.8207 23.6679 19.2504 23.6172C15.5433 23.5664 14.3754 19.7578 16.4066 17.6757C16.8129 17.2695 14.934 16.457 15.2894 14.6797C15.4418 13.9179 16.1019 12.8007 17.7777 13.1054C19.4535 13.4101 19.809 11.8867 20.9261 12.4453C22.0433 13.0039 21.3832 15.1367 21.5355 15.4414C21.6879 15.7461 23.3129 15.7968 23.6175 16.6601C23.9222 17.5234 21.5355 19.4023 17.8285 18.8945C16.9652 18.7929 16.4574 19.9101 17.016 20.6211C18.1332 22.2461 22.7035 21.1797 23.4652 19.6054C21.5355 21.0781 17.5746 21.6367 17.2699 20.0625C18.3871 20.5703 20.266 20.2656 20.266 20.0625ZM13.6136 12.039C14.7308 10.6679 16.2035 9.85541 16.2035 9.85541L15.8988 10.6171C15.8988 10.6171 16.9652 9.80463 18.1332 9.80463L17.7269 10.2109C19.0472 10.2617 19.6058 10.7695 19.6058 10.7695C19.6058 10.7695 16.5082 9.85541 13.6136 12.039ZM20.4691 14.0195C21.1293 13.9687 20.9261 15.4922 20.9261 15.4922H20.5199C20.5199 15.4922 19.809 14.0703 20.4691 14.0195ZM17.473 15.6953C17.016 15.7461 16.5082 16 16.559 15.7968C16.7621 14.9843 18.641 15.1875 18.5902 15.8984C18.5394 16.6093 18.1332 15.5937 17.473 15.6953ZM18.5394 16.3047C18.5902 16.4062 18.184 16.3047 17.8793 16.3554C17.5746 16.4062 17.2699 16.5586 17.2699 16.457C17.2699 16.3554 18.4379 15.8984 18.5394 16.3047ZM19.555 16.457C19.7074 16.1523 20.3168 16.457 20.1644 16.7617C20.0121 17.0664 19.4027 16.7617 19.555 16.457ZM20.8246 16.5586C20.5199 16.5586 20.5199 15.8984 20.8246 15.8984C21.1293 15.8984 21.1293 16.6093 20.8246 16.6093V16.5586ZM11.684 19.25C11.8363 19.4023 11.3793 19.707 11.0238 19.4531C10.6683 19.1992 11.43 17.9804 10.516 17.6757C9.60189 17.3711 9.8558 18.539 9.60189 18.3867C9.34799 18.2343 9.95736 16.6093 11.0238 17.2695C12.0902 17.9297 10.7191 18.9453 11.3285 19.25C11.9379 19.5547 11.5824 19.1484 11.684 19.25Z" fill="#222222"/>
</g>
</svg>
